<svg xmlns="http://www.w3.org/2000/svg" width="432" height="294" viewBox="0 0 432 294" role="img" aria-label="eongeung's pixel garden: TREE, 812 contributions">
<title>eongeung's pixel garden: TREE, 812 contributions</title>
<defs><clipPath id="frame"><rect width="432" height="294" rx="10"/></clipPath></defs>
<g clip-path="url(#frame)">
<rect width="432" height="294" fill="#0d1117"/>
<g shape-rendering="crispEdges"><rect x="0" y="0" width="432" height="6" fill="#0b1224"/><rect x="0" y="6" width="432" height="6" fill="#0b1224"/><rect x="0" y="12" width="432" height="6" fill="#0b1224"/><rect x="0" y="18" width="138" height="6" fill="#0b1224"/><rect x="138" y="18" width="6" height="6" fill="#6f7aa3"/><rect x="144" y="18" width="60" height="6" fill="#0b1224"/><rect x="204" y="18" width="12" height="6" fill="#b8984f"/><rect x="216" y="18" width="18" height="6" fill="#b87358"/><rect x="234" y="18" width="6" height="6" fill="#872d22"/><rect x="240" y="18" width="192" height="6" fill="#0b1224"/><rect x="0" y="24" width="150" height="6" fill="#0b1224"/><rect x="150" y="24" width="6" height="6" fill="#fdf5d3"/><rect x="156" y="24" width="36" height="6" fill="#0b1224"/><rect x="192" y="24" width="6" height="6" fill="#b8984f"/><rect x="198" y="24" width="6" height="6" fill="#0b1224"/><rect x="204" y="24" width="12" height="6" fill="#b8984f"/><rect x="216" y="24" width="24" height="6" fill="#b87358"/><rect x="240" y="24" width="6" height="6" fill="#872d22"/><rect x="246" y="24" width="108" height="6" fill="#0b1224"/><rect x="354" y="24" width="6" height="6" fill="#f3eecf"/><rect x="360" y="24" width="72" height="6" fill="#0b1224"/><rect x="0" y="30" width="186" height="6" fill="#0b1224"/><rect x="186" y="30" width="30" height="6" fill="#b8984f"/><rect x="216" y="30" width="12" height="6" fill="#b87358"/><rect x="228" y="30" width="12" height="6" fill="#a7492d"/><rect x="240" y="30" width="6" height="6" fill="#b87358"/><rect x="246" y="30" width="6" height="6" fill="#872d22"/><rect x="252" y="30" width="96" height="6" fill="#0b1224"/><rect x="348" y="30" width="6" height="6" fill="#f3eecf"/><rect x="354" y="30" width="78" height="6" fill="#0b1224"/><rect x="0" y="36" width="186" height="6" fill="#0b1224"/><rect x="186" y="36" width="12" height="6" fill="#b8984f"/><rect x="198" y="36" width="12" height="6" fill="#b87358"/><rect x="210" y="36" width="6" height="6" fill="#a7492d"/><rect x="216" y="36" width="12" height="6" fill="#b87358"/><rect x="228" y="36" width="18" height="6" fill="#a7492d"/><rect x="246" y="36" width="6" height="6" fill="#872d22"/><rect x="252" y="36" width="42" height="6" fill="#0b1224"/><rect x="294" y="36" width="6" height="6" fill="#fdf5d3"/><rect x="300" y="36" width="42" height="6" fill="#0b1224"/><rect x="342" y="36" width="12" height="6" fill="#f3eecf"/><rect x="354" y="36" width="78" height="6" fill="#0b1224"/><rect x="0" y="42" width="180" height="6" fill="#0b1224"/><rect x="180" y="42" width="18" height="6" fill="#b8984f"/><rect x="198" y="42" width="12" height="6" fill="#b87358"/><rect x="210" y="42" width="6" height="6" fill="#a7492d"/><rect x="216" y="42" width="12" height="6" fill="#b87358"/><rect x="228" y="42" width="12" height="6" fill="#a7492d"/><rect x="240" y="42" width="6" height="6" fill="#a62932"/><rect x="246" y="42" width="6" height="6" fill="#a7492d"/><rect x="252" y="42" width="6" height="6" fill="#9d5420"/><rect x="258" y="42" width="66" height="6" fill="#0b1224"/><rect x="324" y="42" width="6" height="6" fill="#6f7aa3"/><rect x="330" y="42" width="12" height="6" fill="#0b1224"/><rect x="342" y="42" width="18" height="6" fill="#f3eecf"/><rect x="360" y="42" width="72" height="6" fill="#0b1224"/><rect x="0" y="48" width="6" height="6" fill="#0b1224"/><rect x="6" y="48" width="6" height="6" fill="#101a31"/><rect x="12" y="48" width="6" height="6" fill="#0b1224"/><rect x="18" y="48" width="6" height="6" fill="#101a31"/><rect x="24" y="48" width="6" height="6" fill="#0b1224"/><rect x="30" y="48" width="6" height="6" fill="#101a31"/><rect x="36" y="48" width="6" height="6" fill="#0b1224"/><rect x="42" y="48" width="6" height="6" fill="#101a31"/><rect x="48" y="48" width="6" height="6" fill="#0b1224"/><rect x="54" y="48" width="6" height="6" fill="#101a31"/><rect x="60" y="48" width="6" height="6" fill="#0b1224"/><rect x="66" y="48" width="6" height="6" fill="#101a31"/><rect x="72" y="48" width="6" height="6" fill="#0b1224"/><rect x="78" y="48" width="6" height="6" fill="#101a31"/><rect x="84" y="48" width="6" height="6" fill="#0b1224"/><rect x="90" y="48" width="6" height="6" fill="#101a31"/><rect x="96" y="48" width="6" height="6" fill="#0b1224"/><rect x="102" y="48" width="6" height="6" fill="#101a31"/><rect x="108" y="48" width="6" height="6" fill="#0b1224"/><rect x="114" y="48" width="6" height="6" fill="#101a31"/><rect x="120" y="48" width="6" height="6" fill="#0b1224"/><rect x="126" y="48" width="6" height="6" fill="#101a31"/><rect x="132" y="48" width="6" height="6" fill="#0b1224"/><rect x="138" y="48" width="6" height="6" fill="#101a31"/><rect x="144" y="48" width="6" height="6" fill="#0b1224"/><rect x="150" y="48" width="6" height="6" fill="#101a31"/><rect x="156" y="48" width="6" height="6" fill="#0b1224"/><rect x="162" y="48" width="6" height="6" fill="#101a31"/><rect x="168" y="48" width="6" height="6" fill="#0b1224"/><rect x="174" y="48" width="6" height="6" fill="#b87358"/><rect x="180" y="48" width="18" height="6" fill="#b8984f"/><rect x="198" y="48" width="30" height="6" fill="#b87358"/><rect x="228" y="48" width="12" height="6" fill="#a7492d"/><rect x="240" y="48" width="6" height="6" fill="#711317"/><rect x="246" y="48" width="6" height="6" fill="#a7492d"/><rect x="252" y="48" width="6" height="6" fill="#b07830"/><rect x="258" y="48" width="6" height="6" fill="#9d5420"/><rect x="264" y="48" width="6" height="6" fill="#0b1224"/><rect x="270" y="48" width="6" height="6" fill="#101a31"/><rect x="276" y="48" width="6" height="6" fill="#0b1224"/><rect x="282" y="48" width="6" height="6" fill="#101a31"/><rect x="288" y="48" width="6" height="6" fill="#0b1224"/><rect x="294" y="48" width="6" height="6" fill="#101a31"/><rect x="300" y="48" width="6" height="6" fill="#0b1224"/><rect x="306" y="48" width="6" height="6" fill="#101a31"/><rect x="312" y="48" width="6" height="6" fill="#0b1224"/><rect x="318" y="48" width="6" height="6" fill="#101a31"/><rect x="324" y="48" width="6" height="6" fill="#0b1224"/><rect x="330" y="48" width="6" height="6" fill="#101a31"/><rect x="336" y="48" width="6" height="6" fill="#0b1224"/><rect x="342" y="48" width="18" height="6" fill="#f3eecf"/><rect x="360" y="48" width="30" height="6" fill="#0b1224"/><rect x="390" y="48" width="6" height="6" fill="#101a31"/><rect x="396" y="48" width="6" height="6" fill="#0b1224"/><rect x="402" y="48" width="6" height="6" fill="#101a31"/><rect x="408" y="48" width="6" height="6" fill="#0b1224"/><rect x="414" y="48" width="6" height="6" fill="#101a31"/><rect x="420" y="48" width="6" height="6" fill="#0b1224"/><rect x="426" y="48" width="6" height="6" fill="#101a31"/><rect x="0" y="54" width="150" height="6" fill="#0b1224"/><rect x="150" y="54" width="30" height="6" fill="#b87358"/><rect x="180" y="54" width="18" height="6" fill="#b8984f"/><rect x="198" y="54" width="18" height="6" fill="#b87358"/><rect x="216" y="54" width="36" height="6" fill="#a7492d"/><rect x="252" y="54" width="18" height="6" fill="#9d5420"/><rect x="270" y="54" width="78" height="6" fill="#0b1224"/><rect x="348" y="54" width="30" height="6" fill="#f3eecf"/><rect x="378" y="54" width="54" height="6" fill="#0b1224"/><rect x="0" y="60" width="48" height="6" fill="#101a31"/><rect x="48" y="60" width="6" height="6" fill="#fdf5d3"/><rect x="54" y="60" width="84" height="6" fill="#101a31"/><rect x="138" y="60" width="6" height="6" fill="#b8984f"/><rect x="144" y="60" width="36" height="6" fill="#b87358"/><rect x="180" y="60" width="12" height="6" fill="#b8984f"/><rect x="192" y="60" width="6" height="6" fill="#a62932"/><rect x="198" y="60" width="6" height="6" fill="#b87358"/><rect x="204" y="60" width="18" height="6" fill="#a7492d"/><rect x="222" y="60" width="6" height="6" fill="#b87358"/><rect x="228" y="60" width="6" height="6" fill="#872d22"/><rect x="234" y="60" width="6" height="6" fill="#a7492d"/><rect x="240" y="60" width="12" height="6" fill="#872d22"/><rect x="252" y="60" width="6" height="6" fill="#b07830"/><rect x="258" y="60" width="6" height="6" fill="#9d5420"/><rect x="264" y="60" width="6" height="6" fill="#b07830"/><rect x="270" y="60" width="6" height="6" fill="#9d5420"/><rect x="276" y="60" width="48" height="6" fill="#101a31"/><rect x="324" y="60" width="6" height="6" fill="#6f7aa3"/><rect x="330" y="60" width="24" height="6" fill="#101a31"/><rect x="354" y="60" width="18" height="6" fill="#f3eecf"/><rect x="372" y="60" width="60" height="6" fill="#101a31"/><rect x="0" y="66" width="132" height="6" fill="#101a31"/><rect x="132" y="66" width="12" height="6" fill="#b8984f"/><rect x="144" y="66" width="36" height="6" fill="#b87358"/><rect x="180" y="66" width="12" height="6" fill="#b07830"/><rect x="192" y="66" width="6" height="6" fill="#711317"/><rect x="198" y="66" width="6" height="6" fill="#b87358"/><rect x="204" y="66" width="24" height="6" fill="#a7492d"/><rect x="228" y="66" width="6" height="6" fill="#872d22"/><rect x="234" y="66" width="6" height="6" fill="#a7492d"/><rect x="240" y="66" width="12" height="6" fill="#872d22"/><rect x="252" y="66" width="36" height="6" fill="#9d5420"/><rect x="288" y="66" width="18" height="6" fill="#101a31"/><rect x="306" y="66" width="6" height="6" fill="#fdf5d3"/><rect x="312" y="66" width="120" height="6" fill="#101a31"/><rect x="0" y="72" width="36" height="6" fill="#101a31"/><rect x="36" y="72" width="6" height="6" fill="#fdf5d3"/><rect x="42" y="72" width="30" height="6" fill="#101a31"/><rect x="72" y="72" width="6" height="6" fill="#fdf5d3"/><rect x="78" y="72" width="48" height="6" fill="#101a31"/><rect x="126" y="72" width="18" height="6" fill="#b8984f"/><rect x="144" y="72" width="12" height="6" fill="#b87358"/><rect x="156" y="72" width="6" height="6" fill="#a7492d"/><rect x="162" y="72" width="18" height="6" fill="#b87358"/><rect x="180" y="72" width="18" height="6" fill="#b07830"/><rect x="198" y="72" width="6" height="6" fill="#b87358"/><rect x="204" y="72" width="24" height="6" fill="#a7492d"/><rect x="228" y="72" width="6" height="6" fill="#872d22"/><rect x="234" y="72" width="6" height="6" fill="#a7492d"/><rect x="240" y="72" width="12" height="6" fill="#872d22"/><rect x="252" y="72" width="30" height="6" fill="#9d5420"/><rect x="282" y="72" width="6" height="6" fill="#723619"/><rect x="288" y="72" width="18" height="6" fill="#9d5420"/><rect x="306" y="72" width="126" height="6" fill="#101a31"/><rect x="0" y="78" width="120" height="6" fill="#101a31"/><rect x="120" y="78" width="24" height="6" fill="#b8984f"/><rect x="144" y="78" width="12" height="6" fill="#b87358"/><rect x="156" y="78" width="12" height="6" fill="#a7492d"/><rect x="168" y="78" width="6" height="6" fill="#b87358"/><rect x="174" y="78" width="6" height="6" fill="#a7492d"/><rect x="180" y="78" width="12" height="6" fill="#b07830"/><rect x="192" y="78" width="6" height="6" fill="#a62932"/><rect x="198" y="78" width="18" height="6" fill="#a7492d"/><rect x="216" y="78" width="6" height="6" fill="#872d22"/><rect x="222" y="78" width="6" height="6" fill="#a7492d"/><rect x="228" y="78" width="6" height="6" fill="#872d22"/><rect x="234" y="78" width="6" height="6" fill="#a7492d"/><rect x="240" y="78" width="12" height="6" fill="#872d22"/><rect x="252" y="78" width="18" height="6" fill="#9d5420"/><rect x="270" y="78" width="18" height="6" fill="#723619"/><rect x="288" y="78" width="12" height="6" fill="#9d5420"/><rect x="300" y="78" width="6" height="6" fill="#723619"/><rect x="306" y="78" width="12" height="6" fill="#591f1b"/><rect x="318" y="78" width="114" height="6" fill="#101a31"/><rect x="0" y="84" width="72" height="6" fill="#101a31"/><rect x="72" y="84" width="6" height="6" fill="#fdf5d3"/><rect x="78" y="84" width="42" height="6" fill="#101a31"/><rect x="120" y="84" width="24" height="6" fill="#b8984f"/><rect x="144" y="84" width="6" height="6" fill="#b87358"/><rect x="150" y="84" width="30" height="6" fill="#a7492d"/><rect x="180" y="84" width="12" height="6" fill="#b07830"/><rect x="192" y="84" width="6" height="6" fill="#711317"/><rect x="198" y="84" width="18" height="6" fill="#a7492d"/><rect x="216" y="84" width="6" height="6" fill="#872d22"/><rect x="222" y="84" width="6" height="6" fill="#a7492d"/><rect x="228" y="84" width="24" height="6" fill="#872d22"/><rect x="252" y="84" width="6" height="6" fill="#9d5420"/><rect x="258" y="84" width="6" height="6" fill="#723619"/><rect x="264" y="84" width="6" height="6" fill="#9d5420"/><rect x="270" y="84" width="18" height="6" fill="#723619"/><rect x="288" y="84" width="12" height="6" fill="#9d5420"/><rect x="300" y="84" width="6" height="6" fill="#723619"/><rect x="306" y="84" width="6" height="6" fill="#591f1b"/><rect x="312" y="84" width="120" height="6" fill="#101a31"/><rect x="0" y="90" width="6" height="6" fill="#101a31"/><rect x="6" y="90" width="6" height="6" fill="#fdf5d3"/><rect x="12" y="90" width="102" height="6" fill="#101a31"/><rect x="114" y="90" width="24" height="6" fill="#b8984f"/><rect x="138" y="90" width="6" height="6" fill="#b07830"/><rect x="144" y="90" width="6" height="6" fill="#b8984f"/><rect x="150" y="90" width="12" height="6" fill="#b07830"/><rect x="162" y="90" width="18" height="6" fill="#a7492d"/><rect x="180" y="90" width="12" height="6" fill="#b07830"/><rect x="192" y="90" width="6" height="6" fill="#9d5420"/><rect x="198" y="90" width="6" height="6" fill="#a7492d"/><rect x="204" y="90" width="6" height="6" fill="#872d22"/><rect x="210" y="90" width="6" height="6" fill="#a7492d"/><rect x="216" y="90" width="6" height="6" fill="#872d22"/><rect x="222" y="90" width="6" height="6" fill="#a7492d"/><rect x="228" y="90" width="18" height="6" fill="#872d22"/><rect x="246" y="90" width="6" height="6" fill="#591f1b"/><rect x="252" y="90" width="6" height="6" fill="#9d5420"/><rect x="258" y="90" width="6" height="6" fill="#723619"/><rect x="264" y="90" width="6" height="6" fill="#9d5420"/><rect x="270" y="90" width="18" height="6" fill="#723619"/><rect x="288" y="90" width="12" height="6" fill="#9d5420"/><rect x="300" y="90" width="6" height="6" fill="#723619"/><rect x="306" y="90" width="12" height="6" fill="#591f1b"/><rect x="318" y="90" width="114" height="6" fill="#101a31"/><rect x="0" y="96" width="114" height="6" fill="#101a31"/><rect x="114" y="96" width="12" height="6" fill="#b8984f"/><rect x="126" y="96" width="6" height="6" fill="#b07830"/><rect x="132" y="96" width="6" height="6" fill="#b8984f"/><rect x="138" y="96" width="24" height="6" fill="#b07830"/><rect x="162" y="96" width="18" height="6" fill="#a7492d"/><rect x="180" y="96" width="12" height="6" fill="#b07830"/><rect x="192" y="96" width="6" height="6" fill="#9d5420"/><rect x="198" y="96" width="6" height="6" fill="#a7492d"/><rect x="204" y="96" width="18" height="6" fill="#872d22"/><rect x="222" y="96" width="6" height="6" fill="#a7492d"/><rect x="228" y="96" width="12" height="6" fill="#872d22"/><rect x="240" y="96" width="12" height="6" fill="#591f1b"/><rect x="252" y="96" width="18" height="6" fill="#9d5420"/><rect x="270" y="96" width="36" height="6" fill="#723619"/><rect x="306" y="96" width="12" height="6" fill="#591f1b"/><rect x="318" y="96" width="114" height="6" fill="#101a31"/><rect x="0" y="102" width="6" height="6" fill="#15223f"/><rect x="6" y="102" width="6" height="6" fill="#101a31"/><rect x="12" y="102" width="6" height="6" fill="#15223f"/><rect x="18" y="102" width="6" height="6" fill="#101a31"/><rect x="24" y="102" width="6" height="6" fill="#15223f"/><rect x="30" y="102" width="6" height="6" fill="#101a31"/><rect x="36" y="102" width="6" height="6" fill="#15223f"/><rect x="42" y="102" width="6" height="6" fill="#101a31"/><rect x="48" y="102" width="6" height="6" fill="#15223f"/><rect x="54" y="102" width="6" height="6" fill="#101a31"/><rect x="60" y="102" width="6" height="6" fill="#15223f"/><rect x="66" y="102" width="6" height="6" fill="#101a31"/><rect x="72" y="102" width="6" height="6" fill="#15223f"/><rect x="78" y="102" width="6" height="6" fill="#101a31"/><rect x="84" y="102" width="6" height="6" fill="#15223f"/><rect x="90" y="102" width="6" height="6" fill="#101a31"/><rect x="96" y="102" width="6" height="6" fill="#15223f"/><rect x="102" y="102" width="6" height="6" fill="#101a31"/><rect x="108" y="102" width="6" height="6" fill="#15223f"/><rect x="114" y="102" width="6" height="6" fill="#b8984f"/><rect x="120" y="102" width="12" height="6" fill="#b07830"/><rect x="132" y="102" width="6" height="6" fill="#b8984f"/><rect x="138" y="102" width="24" height="6" fill="#b07830"/><rect x="162" y="102" width="18" height="6" fill="#a7492d"/><rect x="180" y="102" width="18" height="6" fill="#9d5420"/><rect x="198" y="102" width="6" height="6" fill="#a7492d"/><rect x="204" y="102" width="36" height="6" fill="#872d22"/><rect x="240" y="102" width="12" height="6" fill="#591f1b"/><rect x="252" y="102" width="6" height="6" fill="#9d5420"/><rect x="258" y="102" width="6" height="6" fill="#723619"/><rect x="264" y="102" width="6" height="6" fill="#9d5420"/><rect x="270" y="102" width="36" height="6" fill="#723619"/><rect x="306" y="102" width="12" height="6" fill="#591f1b"/><rect x="318" y="102" width="6" height="6" fill="#101a31"/><rect x="324" y="102" width="6" height="6" fill="#15223f"/><rect x="330" y="102" width="6" height="6" fill="#101a31"/><rect x="336" y="102" width="6" height="6" fill="#15223f"/><rect x="342" y="102" width="6" height="6" fill="#101a31"/><rect x="348" y="102" width="6" height="6" fill="#15223f"/><rect x="354" y="102" width="6" height="6" fill="#101a31"/><rect x="360" y="102" width="6" height="6" fill="#15223f"/><rect x="366" y="102" width="6" height="6" fill="#101a31"/><rect x="372" y="102" width="6" height="6" fill="#15223f"/><rect x="378" y="102" width="6" height="6" fill="#101a31"/><rect x="384" y="102" width="6" height="6" fill="#15223f"/><rect x="390" y="102" width="6" height="6" fill="#101a31"/><rect x="396" y="102" width="6" height="6" fill="#15223f"/><rect x="402" y="102" width="6" height="6" fill="#101a31"/><rect x="408" y="102" width="6" height="6" fill="#15223f"/><rect x="414" y="102" width="6" height="6" fill="#101a31"/><rect x="420" y="102" width="6" height="6" fill="#15223f"/><rect x="426" y="102" width="6" height="6" fill="#101a31"/><rect x="0" y="108" width="114" height="6" fill="#101a31"/><rect x="114" y="108" width="6" height="6" fill="#b8984f"/><rect x="120" y="108" width="12" height="6" fill="#b07830"/><rect x="132" y="108" width="6" height="6" fill="#b8984f"/><rect x="138" y="108" width="6" height="6" fill="#b07830"/><rect x="144" y="108" width="12" height="6" fill="#a7492d"/><rect x="156" y="108" width="6" height="6" fill="#872d22"/><rect x="162" y="108" width="18" height="6" fill="#a7492d"/><rect x="180" y="108" width="18" height="6" fill="#9d5420"/><rect x="198" y="108" width="30" height="6" fill="#872d22"/><rect x="228" y="108" width="6" height="6" fill="#591f1b"/><rect x="234" y="108" width="6" height="6" fill="#872d22"/><rect x="240" y="108" width="12" height="6" fill="#591f1b"/><rect x="252" y="108" width="6" height="6" fill="#723619"/><rect x="258" y="108" width="6" height="6" fill="#9d5420"/><rect x="264" y="108" width="42" height="6" fill="#723619"/><rect x="306" y="108" width="12" height="6" fill="#591f1b"/><rect x="318" y="108" width="48" height="6" fill="#101a31"/><rect x="366" y="108" width="6" height="6" fill="#6f7aa3"/><rect x="372" y="108" width="60" height="6" fill="#101a31"/><rect x="0" y="114" width="114" height="6" fill="#15223f"/><rect x="114" y="114" width="6" height="6" fill="#9d5420"/><rect x="120" y="114" width="24" height="6" fill="#b07830"/><rect x="144" y="114" width="12" height="6" fill="#a7492d"/><rect x="156" y="114" width="12" height="6" fill="#872d22"/><rect x="168" y="114" width="6" height="6" fill="#a7492d"/><rect x="174" y="114" width="6" height="6" fill="#872d22"/><rect x="180" y="114" width="18" height="6" fill="#9d5420"/><rect x="198" y="114" width="30" height="6" fill="#872d22"/><rect x="228" y="114" width="6" height="6" fill="#591f1b"/><rect x="234" y="114" width="6" height="6" fill="#872d22"/><rect x="240" y="114" width="12" height="6" fill="#591f1b"/><rect x="252" y="114" width="6" height="6" fill="#723619"/><rect x="258" y="114" width="6" height="6" fill="#9d5420"/><rect x="264" y="114" width="42" height="6" fill="#723619"/><rect x="306" y="114" width="12" height="6" fill="#591f1b"/><rect x="318" y="114" width="114" height="6" fill="#15223f"/><rect x="0" y="120" width="120" height="6" fill="#15223f"/><rect x="120" y="120" width="6" height="6" fill="#9d5420"/><rect x="126" y="120" width="18" height="6" fill="#b07830"/><rect x="144" y="120" width="6" height="6" fill="#a7492d"/><rect x="150" y="120" width="12" height="6" fill="#872d22"/><rect x="162" y="120" width="6" height="6" fill="#a7492d"/><rect x="168" y="120" width="12" height="6" fill="#872d22"/><rect x="180" y="120" width="18" height="6" fill="#9d5420"/><rect x="198" y="120" width="12" height="6" fill="#872d22"/><rect x="210" y="120" width="12" height="6" fill="#591f1b"/><rect x="222" y="120" width="12" height="6" fill="#872d22"/><rect x="234" y="120" width="18" height="6" fill="#591f1b"/><rect x="252" y="120" width="54" height="6" fill="#723619"/><rect x="306" y="120" width="12" height="6" fill="#591f1b"/><rect x="318" y="120" width="114" height="6" fill="#15223f"/><rect x="0" y="126" width="126" height="6" fill="#15223f"/><rect x="126" y="126" width="6" height="6" fill="#9d5420"/><rect x="132" y="126" width="12" height="6" fill="#b07830"/><rect x="144" y="126" width="6" height="6" fill="#a7492d"/><rect x="150" y="126" width="12" height="6" fill="#872d22"/><rect x="162" y="126" width="6" height="6" fill="#a7492d"/><rect x="168" y="126" width="12" height="6" fill="#872d22"/><rect x="180" y="126" width="18" height="6" fill="#9d5420"/><rect x="198" y="126" width="12" height="6" fill="#872d22"/><rect x="210" y="126" width="12" height="6" fill="#591f1b"/><rect x="222" y="126" width="6" height="6" fill="#872d22"/><rect x="228" y="126" width="24" height="6" fill="#591f1b"/><rect x="252" y="126" width="54" height="6" fill="#723619"/><rect x="306" y="126" width="12" height="6" fill="#591f1b"/><rect x="318" y="126" width="18" height="6" fill="#15223f"/><rect x="336" y="126" width="6" height="6" fill="#6f7aa3"/><rect x="342" y="126" width="90" height="6" fill="#15223f"/><rect x="0" y="132" width="132" height="6" fill="#15223f"/><rect x="132" y="132" width="6" height="6" fill="#9d5420"/><rect x="138" y="132" width="6" height="6" fill="#b07830"/><rect x="144" y="132" width="6" height="6" fill="#a7492d"/><rect x="150" y="132" width="12" height="6" fill="#872d22"/><rect x="162" y="132" width="6" height="6" fill="#a7492d"/><rect x="168" y="132" width="12" height="6" fill="#872d22"/><rect x="180" y="132" width="12" height="6" fill="#9d5420"/><rect x="192" y="132" width="6" height="6" fill="#723619"/><rect x="198" y="132" width="6" height="6" fill="#591f1b"/><rect x="204" y="132" width="6" height="6" fill="#872d22"/><rect x="210" y="132" width="12" height="6" fill="#591f1b"/><rect x="222" y="132" width="6" height="6" fill="#872d22"/><rect x="228" y="132" width="24" height="6" fill="#591f1b"/><rect x="252" y="132" width="54" height="6" fill="#723619"/><rect x="306" y="132" width="6" height="6" fill="#591f1b"/><rect x="312" y="132" width="120" height="6" fill="#15223f"/><rect x="0" y="138" width="138" height="6" fill="#15223f"/><rect x="138" y="138" width="6" height="6" fill="#9d5420"/><rect x="144" y="138" width="36" height="6" fill="#872d22"/><rect x="180" y="138" width="12" height="6" fill="#15223f"/><rect x="192" y="138" width="6" height="6" fill="#723619"/><rect x="198" y="138" width="24" height="6" fill="#591f1b"/><rect x="222" y="138" width="6" height="6" fill="#412816"/><rect x="228" y="138" width="12" height="6" fill="#591f1b"/><rect x="240" y="138" width="6" height="6" fill="#15223f"/><rect x="246" y="138" width="6" height="6" fill="#591f1b"/><rect x="252" y="138" width="6" height="6" fill="#723619"/><rect x="258" y="138" width="12" height="6" fill="#15223f"/><rect x="270" y="138" width="18" height="6" fill="#723619"/><rect x="288" y="138" width="6" height="6" fill="#15223f"/><rect x="294" y="138" width="6" height="6" fill="#723619"/><rect x="300" y="138" width="132" height="6" fill="#15223f"/><rect x="0" y="144" width="204" height="6" fill="#15223f"/><rect x="204" y="144" width="6" height="6" fill="#6c472a"/><rect x="210" y="144" width="12" height="6" fill="#583820"/><rect x="222" y="144" width="6" height="6" fill="#412816"/><rect x="228" y="144" width="60" height="6" fill="#15223f"/><rect x="288" y="144" width="6" height="6" fill="#872d22"/><rect x="294" y="144" width="138" height="6" fill="#15223f"/><rect x="0" y="150" width="204" height="6" fill="#15223f"/><rect x="204" y="150" width="6" height="6" fill="#6c472a"/><rect x="210" y="150" width="12" height="6" fill="#583820"/><rect x="222" y="150" width="6" height="6" fill="#412816"/><rect x="228" y="150" width="204" height="6" fill="#15223f"/><rect x="0" y="156" width="6" height="6" fill="#15223f"/><rect x="6" y="156" width="6" height="6" fill="#1b2b4c"/><rect x="12" y="156" width="6" height="6" fill="#15223f"/><rect x="18" y="156" width="6" height="6" fill="#1b2b4c"/><rect x="24" y="156" width="6" height="6" fill="#15223f"/><rect x="30" y="156" width="6" height="6" fill="#1b2b4c"/><rect x="36" y="156" width="6" height="6" fill="#15223f"/><rect x="42" y="156" width="6" height="6" fill="#1b2b4c"/><rect x="48" y="156" width="6" height="6" fill="#15223f"/><rect x="54" y="156" width="6" height="6" fill="#1b2b4c"/><rect x="60" y="156" width="6" height="6" fill="#15223f"/><rect x="66" y="156" width="6" height="6" fill="#1b2b4c"/><rect x="72" y="156" width="6" height="6" fill="#15223f"/><rect x="78" y="156" width="6" height="6" fill="#1b2b4c"/><rect x="84" y="156" width="6" height="6" fill="#15223f"/><rect x="90" y="156" width="6" height="6" fill="#1b2b4c"/><rect x="96" y="156" width="6" height="6" fill="#15223f"/><rect x="102" y="156" width="6" height="6" fill="#1b2b4c"/><rect x="108" y="156" width="6" height="6" fill="#15223f"/><rect x="114" y="156" width="6" height="6" fill="#1b2b4c"/><rect x="120" y="156" width="6" height="6" fill="#15223f"/><rect x="126" y="156" width="6" height="6" fill="#1b2b4c"/><rect x="132" y="156" width="6" height="6" fill="#15223f"/><rect x="138" y="156" width="6" height="6" fill="#1b2b4c"/><rect x="144" y="156" width="6" height="6" fill="#15223f"/><rect x="150" y="156" width="6" height="6" fill="#1b2b4c"/><rect x="156" y="156" width="6" height="6" fill="#15223f"/><rect x="162" y="156" width="6" height="6" fill="#1b2b4c"/><rect x="168" y="156" width="6" height="6" fill="#15223f"/><rect x="174" y="156" width="6" height="6" fill="#1b2b4c"/><rect x="180" y="156" width="6" height="6" fill="#15223f"/><rect x="186" y="156" width="6" height="6" fill="#1b2b4c"/><rect x="192" y="156" width="6" height="6" fill="#15223f"/><rect x="198" y="156" width="6" height="6" fill="#1b2b4c"/><rect x="204" y="156" width="6" height="6" fill="#6c472a"/><rect x="210" y="156" width="12" height="6" fill="#583820"/><rect x="222" y="156" width="6" height="6" fill="#412816"/><rect x="228" y="156" width="6" height="6" fill="#15223f"/><rect x="234" y="156" width="6" height="6" fill="#1b2b4c"/><rect x="240" y="156" width="6" height="6" fill="#15223f"/><rect x="246" y="156" width="6" height="6" fill="#1b2b4c"/><rect x="252" y="156" width="6" height="6" fill="#15223f"/><rect x="258" y="156" width="6" height="6" fill="#1b2b4c"/><rect x="264" y="156" width="6" height="6" fill="#15223f"/><rect x="270" y="156" width="6" height="6" fill="#1b2b4c"/><rect x="276" y="156" width="6" height="6" fill="#15223f"/><rect x="282" y="156" width="6" height="6" fill="#b07830"/><rect x="288" y="156" width="6" height="6" fill="#15223f"/><rect x="294" y="156" width="6" height="6" fill="#1b2b4c"/><rect x="300" y="156" width="6" height="6" fill="#15223f"/><rect x="306" y="156" width="6" height="6" fill="#1b2b4c"/><rect x="312" y="156" width="6" height="6" fill="#15223f"/><rect x="318" y="156" width="6" height="6" fill="#1b2b4c"/><rect x="324" y="156" width="6" height="6" fill="#15223f"/><rect x="330" y="156" width="6" height="6" fill="#1b2b4c"/><rect x="336" y="156" width="6" height="6" fill="#15223f"/><rect x="342" y="156" width="6" height="6" fill="#1b2b4c"/><rect x="348" y="156" width="6" height="6" fill="#15223f"/><rect x="354" y="156" width="6" height="6" fill="#1b2b4c"/><rect x="360" y="156" width="6" height="6" fill="#15223f"/><rect x="366" y="156" width="6" height="6" fill="#1b2b4c"/><rect x="372" y="156" width="6" height="6" fill="#15223f"/><rect x="378" y="156" width="6" height="6" fill="#1b2b4c"/><rect x="384" y="156" width="6" height="6" fill="#15223f"/><rect x="390" y="156" width="6" height="6" fill="#1b2b4c"/><rect x="396" y="156" width="6" height="6" fill="#15223f"/><rect x="402" y="156" width="6" height="6" fill="#1b2b4c"/><rect x="408" y="156" width="6" height="6" fill="#15223f"/><rect x="414" y="156" width="6" height="6" fill="#1b2b4c"/><rect x="420" y="156" width="6" height="6" fill="#15223f"/><rect x="426" y="156" width="6" height="6" fill="#1b2b4c"/><rect x="0" y="162" width="204" height="6" fill="#15223f"/><rect x="204" y="162" width="6" height="6" fill="#6c472a"/><rect x="210" y="162" width="12" height="6" fill="#583820"/><rect x="222" y="162" width="6" height="6" fill="#412816"/><rect x="228" y="162" width="204" height="6" fill="#15223f"/><rect x="0" y="168" width="204" height="6" fill="#1b2b4c"/><rect x="204" y="168" width="6" height="6" fill="#6c472a"/><rect x="210" y="168" width="12" height="6" fill="#583820"/><rect x="222" y="168" width="6" height="6" fill="#412816"/><rect x="228" y="168" width="204" height="6" fill="#1b2b4c"/><rect x="0" y="174" width="198" height="6" fill="#1b2b4c"/><rect x="198" y="174" width="6" height="6" fill="#872d22"/><rect x="204" y="174" width="6" height="6" fill="#6c472a"/><rect x="210" y="174" width="12" height="6" fill="#583820"/><rect x="222" y="174" width="6" height="6" fill="#412816"/><rect x="228" y="174" width="204" height="6" fill="#1b2b4c"/><rect x="0" y="180" width="174" height="6" fill="#1b2b4c"/><rect x="174" y="180" width="6" height="6" fill="#b07830"/><rect x="180" y="180" width="24" height="6" fill="#1b2b4c"/><rect x="204" y="180" width="6" height="6" fill="#6c472a"/><rect x="210" y="180" width="12" height="6" fill="#583820"/><rect x="222" y="180" width="6" height="6" fill="#412816"/><rect x="228" y="180" width="204" height="6" fill="#1b2b4c"/><rect x="0" y="186" width="204" height="6" fill="#1b2b4c"/><rect x="204" y="186" width="6" height="6" fill="#6c472a"/><rect x="210" y="186" width="12" height="6" fill="#583820"/><rect x="222" y="186" width="6" height="6" fill="#412816"/><rect x="228" y="186" width="48" height="6" fill="#1b2b4c"/><rect x="276" y="186" width="6" height="6" fill="#b07830"/><rect x="282" y="186" width="150" height="6" fill="#1b2b4c"/><rect x="0" y="192" width="204" height="6" fill="#1b2b4c"/><rect x="204" y="192" width="6" height="6" fill="#6c472a"/><rect x="210" y="192" width="12" height="6" fill="#583820"/><rect x="222" y="192" width="6" height="6" fill="#412816"/><rect x="228" y="192" width="204" height="6" fill="#1b2b4c"/><rect x="0" y="198" width="204" height="6" fill="#1b2b4c"/><rect x="204" y="198" width="6" height="6" fill="#6c472a"/><rect x="210" y="198" width="12" height="6" fill="#583820"/><rect x="222" y="198" width="6" height="6" fill="#412816"/><rect x="228" y="198" width="204" height="6" fill="#1b2b4c"/><rect x="0" y="204" width="204" height="6" fill="#1b2b4c"/><rect x="204" y="204" width="6" height="6" fill="#6c472a"/><rect x="210" y="204" width="12" height="6" fill="#583820"/><rect x="222" y="204" width="6" height="6" fill="#412816"/><rect x="228" y="204" width="204" height="6" fill="#1b2b4c"/><rect x="0" y="210" width="204" height="6" fill="#1b2b4c"/><rect x="204" y="210" width="6" height="6" fill="#6c472a"/><rect x="210" y="210" width="12" height="6" fill="#583820"/><rect x="222" y="210" width="6" height="6" fill="#412816"/><rect x="228" y="210" width="18" height="6" fill="#1b2b4c"/><rect x="246" y="210" width="6" height="6" fill="#872d22"/><rect x="252" y="210" width="180" height="6" fill="#1b2b4c"/><rect x="0" y="216" width="30" height="6" fill="#1b2b4c"/><rect x="30" y="216" width="6" height="6" fill="#888037"/><rect x="36" y="216" width="42" height="6" fill="#1b2b4c"/><rect x="78" y="216" width="6" height="6" fill="#888037"/><rect x="84" y="216" width="54" height="6" fill="#1b2b4c"/><rect x="138" y="216" width="6" height="6" fill="#888037"/><rect x="144" y="216" width="48" height="6" fill="#1b2b4c"/><rect x="192" y="216" width="12" height="6" fill="#412816"/><rect x="204" y="216" width="6" height="6" fill="#6c472a"/><rect x="210" y="216" width="12" height="6" fill="#583820"/><rect x="222" y="216" width="18" height="6" fill="#412816"/><rect x="240" y="216" width="6" height="6" fill="#888037"/><rect x="246" y="216" width="30" height="6" fill="#1b2b4c"/><rect x="276" y="216" width="6" height="6" fill="#888037"/><rect x="282" y="216" width="12" height="6" fill="#1b2b4c"/><rect x="294" y="216" width="6" height="6" fill="#888037"/><rect x="300" y="216" width="84" height="6" fill="#1b2b4c"/><rect x="384" y="216" width="6" height="6" fill="#888037"/><rect x="390" y="216" width="42" height="6" fill="#1b2b4c"/><rect x="0" y="222" width="234" height="6" fill="#888037"/><rect x="234" y="222" width="6" height="6" fill="#b07830"/><rect x="240" y="222" width="192" height="6" fill="#888037"/><rect x="0" y="228" width="6" height="6" fill="#888037"/><rect x="6" y="228" width="6" height="6" fill="#6f692c"/><rect x="12" y="228" width="6" height="6" fill="#888037"/><rect x="18" y="228" width="6" height="6" fill="#6f692c"/><rect x="24" y="228" width="6" height="6" fill="#888037"/><rect x="30" y="228" width="6" height="6" fill="#6f692c"/><rect x="36" y="228" width="6" height="6" fill="#888037"/><rect x="42" y="228" width="6" height="6" fill="#6f692c"/><rect x="48" y="228" width="6" height="6" fill="#888037"/><rect x="54" y="228" width="6" height="6" fill="#6f692c"/><rect x="60" y="228" width="6" height="6" fill="#888037"/><rect x="66" y="228" width="6" height="6" fill="#6f692c"/><rect x="72" y="228" width="6" height="6" fill="#888037"/><rect x="78" y="228" width="6" height="6" fill="#6f692c"/><rect x="84" y="228" width="6" height="6" fill="#888037"/><rect x="90" y="228" width="6" height="6" fill="#6f692c"/><rect x="96" y="228" width="6" height="6" fill="#888037"/><rect x="102" y="228" width="6" height="6" fill="#6f692c"/><rect x="108" y="228" width="6" height="6" fill="#888037"/><rect x="114" y="228" width="6" height="6" fill="#6f692c"/><rect x="120" y="228" width="6" height="6" fill="#888037"/><rect x="126" y="228" width="6" height="6" fill="#6f692c"/><rect x="132" y="228" width="6" height="6" fill="#888037"/><rect x="138" y="228" width="6" height="6" fill="#6f692c"/><rect x="144" y="228" width="6" height="6" fill="#888037"/><rect x="150" y="228" width="6" height="6" fill="#6f692c"/><rect x="156" y="228" width="6" height="6" fill="#888037"/><rect x="162" y="228" width="6" height="6" fill="#6f692c"/><rect x="168" y="228" width="6" height="6" fill="#888037"/><rect x="174" y="228" width="6" height="6" fill="#6f692c"/><rect x="180" y="228" width="6" height="6" fill="#888037"/><rect x="186" y="228" width="6" height="6" fill="#6f692c"/><rect x="192" y="228" width="6" height="6" fill="#888037"/><rect x="198" y="228" width="6" height="6" fill="#6f692c"/><rect x="204" y="228" width="6" height="6" fill="#888037"/><rect x="210" y="228" width="6" height="6" fill="#6f692c"/><rect x="216" y="228" width="6" height="6" fill="#888037"/><rect x="222" y="228" width="6" height="6" fill="#6f692c"/><rect x="228" y="228" width="6" height="6" fill="#888037"/><rect x="234" y="228" width="6" height="6" fill="#6f692c"/><rect x="240" y="228" width="6" height="6" fill="#888037"/><rect x="246" y="228" width="6" height="6" fill="#6f692c"/><rect x="252" y="228" width="6" height="6" fill="#888037"/><rect x="258" y="228" width="6" height="6" fill="#6f692c"/><rect x="264" y="228" width="6" height="6" fill="#888037"/><rect x="270" y="228" width="6" height="6" fill="#6f692c"/><rect x="276" y="228" width="6" height="6" fill="#888037"/><rect x="282" y="228" width="6" height="6" fill="#6f692c"/><rect x="288" y="228" width="6" height="6" fill="#888037"/><rect x="294" y="228" width="6" height="6" fill="#6f692c"/><rect x="300" y="228" width="6" height="6" fill="#888037"/><rect x="306" y="228" width="6" height="6" fill="#6f692c"/><rect x="312" y="228" width="6" height="6" fill="#888037"/><rect x="318" y="228" width="6" height="6" fill="#6f692c"/><rect x="324" y="228" width="6" height="6" fill="#888037"/><rect x="330" y="228" width="6" height="6" fill="#6f692c"/><rect x="336" y="228" width="6" height="6" fill="#888037"/><rect x="342" y="228" width="6" height="6" fill="#6f692c"/><rect x="348" y="228" width="6" height="6" fill="#888037"/><rect x="354" y="228" width="6" height="6" fill="#6f692c"/><rect x="360" y="228" width="6" height="6" fill="#888037"/><rect x="366" y="228" width="6" height="6" fill="#6f692c"/><rect x="372" y="228" width="6" height="6" fill="#888037"/><rect x="378" y="228" width="6" height="6" fill="#6f692c"/><rect x="384" y="228" width="6" height="6" fill="#888037"/><rect x="390" y="228" width="6" height="6" fill="#6f692c"/><rect x="396" y="228" width="6" height="6" fill="#888037"/><rect x="402" y="228" width="6" height="6" fill="#6f692c"/><rect x="408" y="228" width="6" height="6" fill="#888037"/><rect x="414" y="228" width="6" height="6" fill="#6f692c"/><rect x="420" y="228" width="6" height="6" fill="#888037"/><rect x="426" y="228" width="6" height="6" fill="#6f692c"/><rect x="0" y="234" width="6" height="6" fill="#6f692c"/><rect x="6" y="234" width="6" height="6" fill="#543724"/><rect x="12" y="234" width="6" height="6" fill="#6f692c"/><rect x="18" y="234" width="6" height="6" fill="#543724"/><rect x="24" y="234" width="6" height="6" fill="#6f692c"/><rect x="30" y="234" width="6" height="6" fill="#543724"/><rect x="36" y="234" width="6" height="6" fill="#6f692c"/><rect x="42" y="234" width="6" height="6" fill="#543724"/><rect x="48" y="234" width="6" height="6" fill="#6f692c"/><rect x="54" y="234" width="6" height="6" fill="#543724"/><rect x="60" y="234" width="6" height="6" fill="#6f692c"/><rect x="66" y="234" width="6" height="6" fill="#543724"/><rect x="72" y="234" width="6" height="6" fill="#6f692c"/><rect x="78" y="234" width="6" height="6" fill="#543724"/><rect x="84" y="234" width="6" height="6" fill="#6f692c"/><rect x="90" y="234" width="6" height="6" fill="#543724"/><rect x="96" y="234" width="6" height="6" fill="#6f692c"/><rect x="102" y="234" width="6" height="6" fill="#543724"/><rect x="108" y="234" width="6" height="6" fill="#6f692c"/><rect x="114" y="234" width="6" height="6" fill="#543724"/><rect x="120" y="234" width="6" height="6" fill="#6f692c"/><rect x="126" y="234" width="6" height="6" fill="#543724"/><rect x="132" y="234" width="6" height="6" fill="#6f692c"/><rect x="138" y="234" width="6" height="6" fill="#543724"/><rect x="144" y="234" width="6" height="6" fill="#6f692c"/><rect x="150" y="234" width="6" height="6" fill="#543724"/><rect x="156" y="234" width="6" height="6" fill="#6f692c"/><rect x="162" y="234" width="6" height="6" fill="#543724"/><rect x="168" y="234" width="6" height="6" fill="#6f692c"/><rect x="174" y="234" width="6" height="6" fill="#543724"/><rect x="180" y="234" width="6" height="6" fill="#6f692c"/><rect x="186" y="234" width="6" height="6" fill="#543724"/><rect x="192" y="234" width="6" height="6" fill="#6f692c"/><rect x="198" y="234" width="6" height="6" fill="#543724"/><rect x="204" y="234" width="6" height="6" fill="#6f692c"/><rect x="210" y="234" width="6" height="6" fill="#543724"/><rect x="216" y="234" width="6" height="6" fill="#6f692c"/><rect x="222" y="234" width="6" height="6" fill="#543724"/><rect x="228" y="234" width="6" height="6" fill="#6f692c"/><rect x="234" y="234" width="6" height="6" fill="#543724"/><rect x="240" y="234" width="6" height="6" fill="#6f692c"/><rect x="246" y="234" width="6" height="6" fill="#543724"/><rect x="252" y="234" width="6" height="6" fill="#6f692c"/><rect x="258" y="234" width="6" height="6" fill="#543724"/><rect x="264" y="234" width="6" height="6" fill="#6f692c"/><rect x="270" y="234" width="6" height="6" fill="#543724"/><rect x="276" y="234" width="6" height="6" fill="#6f692c"/><rect x="282" y="234" width="6" height="6" fill="#543724"/><rect x="288" y="234" width="6" height="6" fill="#6f692c"/><rect x="294" y="234" width="6" height="6" fill="#543724"/><rect x="300" y="234" width="6" height="6" fill="#6f692c"/><rect x="306" y="234" width="6" height="6" fill="#543724"/><rect x="312" y="234" width="6" height="6" fill="#6f692c"/><rect x="318" y="234" width="6" height="6" fill="#543724"/><rect x="324" y="234" width="6" height="6" fill="#6f692c"/><rect x="330" y="234" width="6" height="6" fill="#543724"/><rect x="336" y="234" width="6" height="6" fill="#6f692c"/><rect x="342" y="234" width="6" height="6" fill="#543724"/><rect x="348" y="234" width="6" height="6" fill="#6f692c"/><rect x="354" y="234" width="6" height="6" fill="#543724"/><rect x="360" y="234" width="6" height="6" fill="#6f692c"/><rect x="366" y="234" width="6" height="6" fill="#543724"/><rect x="372" y="234" width="6" height="6" fill="#6f692c"/><rect x="378" y="234" width="6" height="6" fill="#543724"/><rect x="384" y="234" width="6" height="6" fill="#6f692c"/><rect x="390" y="234" width="6" height="6" fill="#543724"/><rect x="396" y="234" width="6" height="6" fill="#6f692c"/><rect x="402" y="234" width="6" height="6" fill="#543724"/><rect x="408" y="234" width="6" height="6" fill="#6f692c"/><rect x="414" y="234" width="6" height="6" fill="#543724"/><rect x="420" y="234" width="6" height="6" fill="#6f692c"/><rect x="426" y="234" width="6" height="6" fill="#543724"/><rect x="0" y="240" width="30" height="6" fill="#472d1d"/><rect x="30" y="240" width="6" height="6" fill="#5f412c"/><rect x="36" y="240" width="108" height="6" fill="#472d1d"/><rect x="144" y="240" width="6" height="6" fill="#5f412c"/><rect x="150" y="240" width="138" height="6" fill="#472d1d"/><rect x="288" y="240" width="6" height="6" fill="#5f412c"/><rect x="294" y="240" width="6" height="6" fill="#472d1d"/><rect x="300" y="240" width="12" height="6" fill="#5f412c"/><rect x="312" y="240" width="12" height="6" fill="#472d1d"/><rect x="324" y="240" width="6" height="6" fill="#5f412c"/><rect x="330" y="240" width="102" height="6" fill="#472d1d"/><rect x="0" y="246" width="30" height="6" fill="#543724"/><rect x="30" y="246" width="6" height="6" fill="#5f412c"/><rect x="36" y="246" width="108" height="6" fill="#543724"/><rect x="144" y="246" width="6" height="6" fill="#5f412c"/><rect x="150" y="246" width="84" height="6" fill="#543724"/><rect x="234" y="246" width="6" height="6" fill="#5f412c"/><rect x="240" y="246" width="48" height="6" fill="#543724"/><rect x="288" y="246" width="6" height="6" fill="#5f412c"/><rect x="294" y="246" width="6" height="6" fill="#543724"/><rect x="300" y="246" width="12" height="6" fill="#5f412c"/><rect x="312" y="246" width="12" height="6" fill="#543724"/><rect x="324" y="246" width="6" height="6" fill="#5f412c"/><rect x="330" y="246" width="102" height="6" fill="#543724"/><rect x="0" y="252" width="30" height="6" fill="#472d1d"/><rect x="30" y="252" width="6" height="6" fill="#5f412c"/><rect x="36" y="252" width="78" height="6" fill="#472d1d"/><rect x="114" y="252" width="6" height="6" fill="#5f412c"/><rect x="120" y="252" width="24" height="6" fill="#472d1d"/><rect x="144" y="252" width="6" height="6" fill="#5f412c"/><rect x="150" y="252" width="138" height="6" fill="#472d1d"/><rect x="288" y="252" width="6" height="6" fill="#5f412c"/><rect x="294" y="252" width="6" height="6" fill="#472d1d"/><rect x="300" y="252" width="12" height="6" fill="#5f412c"/><rect x="312" y="252" width="12" height="6" fill="#472d1d"/><rect x="324" y="252" width="6" height="6" fill="#5f412c"/><rect x="330" y="252" width="102" height="6" fill="#472d1d"/><rect x="0" y="258" width="30" height="6" fill="#543724"/><rect x="30" y="258" width="6" height="6" fill="#5f412c"/><rect x="36" y="258" width="78" height="6" fill="#543724"/><rect x="114" y="258" width="6" height="6" fill="#5f412c"/><rect x="120" y="258" width="24" height="6" fill="#543724"/><rect x="144" y="258" width="6" height="6" fill="#5f412c"/><rect x="150" y="258" width="138" height="6" fill="#543724"/><rect x="288" y="258" width="6" height="6" fill="#5f412c"/><rect x="294" y="258" width="6" height="6" fill="#543724"/><rect x="300" y="258" width="12" height="6" fill="#5f412c"/><rect x="312" y="258" width="12" height="6" fill="#543724"/><rect x="324" y="258" width="6" height="6" fill="#5f412c"/><rect x="330" y="258" width="102" height="6" fill="#543724"/></g>
<text x="12" y="283" font-family="ui-monospace,SFMono-Regular,Menlo,Consolas,monospace" font-size="11" font-weight="700" fill="#e6edf3">@eongeung · TREE</text>
<text x="420" y="283" text-anchor="end" font-family="ui-monospace,SFMono-Regular,Menlo,Consolas,monospace" font-size="11" fill="#8d96a0">812 contributions · 2-day streak</text>
</g>
<rect x="0.5" y="0.5" width="431" height="293" rx="9.5" fill="none" stroke="#30363d"/>
</svg>
